<?xml version="1.0" standalone="no"?><!DOCTYPE svg PUBLIC "-//W3C//DTD SVG 1.1//EN" "http://www.w3.org/Graphics/SVG/1.1/DTD/svg11.dtd"><svg t="1774368403139" class="icon" viewBox="0 0 1024 1024" version="1.1" xmlns="http://www.w3.org/2000/svg" p-id="1103" data-darkreader-inline-fill="" xmlns:xlink="http://www.w3.org/1999/xlink" width="200" height="200"><path d="M513.11 64.22c-229.13 0-414.88 93.79-414.88 209.48 0 44.58 27.59 85.91 74.61 119.87 18.09 13.07 39.05 25.04 62.43 35.69 73.55 33.51 170.98 53.91 277.84 53.91 107.9 0 206.18-20.8 279.97-54.89 23.35-10.79 44.25-22.91 62.23-36.12 45.84-33.7 72.68-74.5 72.68-118.47C928 158.01 742.25 64.22 513.11 64.22z m333.22 249.93c-12.4 14.81-30.71 29.27-53.45 42.33-4.89 2.81-9.97 5.55-15.25 8.22-21.34 10.78-45.17 20.1-71.15 27.89-14.43 4.33-29.52 8.19-45.25 11.54-46.76 9.99-96.6 15.05-148.13 15.05-51.52 0-101.36-5.06-148.13-15.05-15.03-3.21-29.47-6.88-43.32-10.97-26.73-7.9-51.2-17.42-73.07-28.46-4.67-2.36-9.17-4.78-13.53-7.24-23.54-13.32-42.46-28.13-55.17-43.31-11.72-13.99-17.66-27.6-17.66-40.44 0-12.84 5.94-26.45 17.66-40.44 15.07-17.99 38.82-35.47 68.7-50.55 33.2-16.76 72.36-30.03 116.4-39.44 46.76-9.99 96.6-15.05 148.13-15.05s101.36 5.06 148.13 15.05c44.03 9.4 83.2 22.67 116.4 39.44 29.87 15.08 53.63 32.57 68.7 50.55 11.72 13.99 17.66 27.6 17.66 40.44 0 12.84-5.95 26.45-17.67 40.44z" fill="#1afa29" p-id="1104" data-darkreader-inline-fill="" style="--darkreader-inline-fill: var(--darkreader-background-1afa29, #04bb3b);"></path><path d="M856.29 631.22c-18.03 13.14-38.97 25.19-62.34 35.91 23.14 13.19 41.75 27.83 54.31 42.82 11.72 13.99 17.66 27.6 17.66 40.44 0 12.84-5.94 26.45-17.66 40.44-15.07 17.99-38.82 35.47-68.7 50.55-33.2 16.76-72.36 30.03-116.4 39.44-46.76 9.99-96.6 15.05-148.13 15.05-51.52 0-101.36-5.06-148.13-15.05-44.03-9.4-83.2-22.67-116.4-39.44-29.87-15.08-53.63-32.57-68.7-50.55-11.72-13.99-17.66-27.6-17.66-40.44 0-12.84 5.94-26.45 17.66-40.44 12.56-14.99 31.17-29.63 54.31-42.82-23.37-10.72-44.3-22.77-62.34-35.91-46.43 33.83-73.63 74.9-73.63 119.17 0 115.69 185.75 209.48 414.88 209.48S929.9 866.08 929.9 750.39c0.02-44.27-27.18-85.34-73.61-119.17z" fill="#1afa29" p-id="1105" data-darkreader-inline-fill="" style="--darkreader-inline-fill: var(--darkreader-background-1afa29, #04bb3b);"></path><path d="M855.32 392.18c-17.98 13.21-38.88 25.33-62.23 36.12 23.54 13.32 42.46 28.13 55.17 43.31 11.72 13.99 17.66 27.6 17.66 40.44 0 12.84-5.94 26.45-17.66 40.44-12.56 14.99-31.17 29.63-54.31 42.82-4.63 2.64-9.42 5.22-14.39 7.74-21.61 10.91-45.75 20.33-72.11 28.18-14.14 4.21-28.91 7.98-44.28 11.26-46.76 9.99-96.6 15.05-148.13 15.05-51.52 0-101.36-5.06-148.13-15.05-15.38-3.28-30.14-7.05-44.28-11.26-26.36-7.85-50.5-17.27-72.11-28.18-4.98-2.51-9.77-5.1-14.39-7.74-23.14-13.19-41.75-27.83-54.31-42.82-11.72-13.99-17.66-27.6-17.66-40.44 0-12.84 5.94-26.45 17.66-40.44 12.4-14.81 30.7-29.27 53.45-42.33-23.38-10.65-44.34-22.63-62.43-35.69-45.84 33.7-72.68 74.5-72.68 118.47 0 44.27 27.2 85.34 73.63 119.17 18.03 13.14 38.97 25.19 62.34 35.91 73.67 33.8 171.53 54.4 278.91 54.4s205.24-20.6 278.91-54.4c23.37-10.72 44.3-22.77 62.34-35.91 46.43-33.83 73.63-74.9 73.63-119.17 0-44.59-27.59-85.92-74.6-119.88z" fill="#1afa29" p-id="1106" data-darkreader-inline-fill="" style="--darkreader-inline-fill: var(--darkreader-background-1afa29, #04bb3b);"></path></svg>